<svg xmlns="http://www.w3.org/2000/svg" viewBox="0 0 100 100" role="img" aria-label="Clustead">
  <rect width="100" height="100" rx="22" fill="#15243B"/>
  <g transform="translate(10 10) scale(0.8)" fill="#FFFFFF">
    <polygon points="50,9 85.5,29.5 65,49.5 57,36.8" transform="rotate(0 50 50)"/>
    <polygon points="50,9 85.5,29.5 65,49.5 57,36.8" transform="rotate(60 50 50)" opacity="0.4"/>
    <polygon points="50,9 85.5,29.5 65,49.5 57,36.8" transform="rotate(120 50 50)"/>
    <polygon points="50,9 85.5,29.5 65,49.5 57,36.8" transform="rotate(180 50 50)"/>
    <polygon points="50,9 85.5,29.5 65,49.5 57,36.8" transform="rotate(240 50 50)"/>
    <polygon points="50,9 85.5,29.5 65,49.5 57,36.8" transform="rotate(300 50 50)"/>
  </g>
</svg>
