<svg xmlns="http://www.w3.org/2000/svg" viewBox="0 0 1200 630" role="img" aria-label="Clustead — 내 삶에 맞는 서울 아파트">
  <rect width="1200" height="630" fill="#15243B"/>
  <g transform="translate(535 120) scale(1.3)" fill="#FFFFFF">
    <polygon points="50,9 85.5,29.5 65,49.5 57,36.8" transform="rotate(0 50 50)"/>
    <polygon points="50,9 85.5,29.5 65,49.5 57,36.8" transform="rotate(60 50 50)" opacity="0.4"/>
    <polygon points="50,9 85.5,29.5 65,49.5 57,36.8" transform="rotate(120 50 50)"/>
    <polygon points="50,9 85.5,29.5 65,49.5 57,36.8" transform="rotate(180 50 50)"/>
    <polygon points="50,9 85.5,29.5 65,49.5 57,36.8" transform="rotate(240 50 50)"/>
    <polygon points="50,9 85.5,29.5 65,49.5 57,36.8" transform="rotate(300 50 50)"/>
  </g>
  <text x="612" y="378" text-anchor="middle" fill="#FFFFFF"
        font-family="Jost, 'Century Gothic', Futura, sans-serif" font-weight="600"
        font-size="92" letter-spacing="20">CLUSTEAD</text>
  <text x="600" y="446" text-anchor="middle" fill="#9AA7B8"
        font-family="'Pretendard','Malgun Gothic',sans-serif" font-size="30">집값이 아니라 생활 인프라로 보는 서울 아파트</text>
  <text x="600" y="548" text-anchor="middle" fill="#5B8DEF"
        font-family="Jost, 'Century Gothic', Futura, sans-serif" font-size="26" letter-spacing="4">clustead.com</text>
</svg>
